<svg width="80" height="80" viewBox="0 0 80 80" fill="none" xmlns="http://www.w3.org/2000/svg">
<style>
    rect {
      fill: #0F172A;
    }
    path {
      fill: white;
    }

    @media (prefers-color-scheme: dark) {
      rect {
        fill: white;
      }
      path {
        fill: #0F172A;
      }
    }
</style>

<rect width="80" height="80" rx="40" fill="currentColor"/>
<path d="M24.7695 54.4688C27.3737 54.4688 29.4049 53.7201 30.8633 52.2227C32.3346 50.7253 33.0703 48.6419 33.0703 45.9727V25.8164H29.5547V45.9336C29.5547 47.6523 29.1445 48.9674 28.3242 49.8789C27.5039 50.7773 26.3125 51.2266 24.75 51.2266C23.8255 51.2266 23.0508 51.0508 22.4258 50.6992C21.8008 50.3346 21.319 49.8594 20.9805 49.2734C20.6419 48.6745 20.4336 48.0234 20.3555 47.3203L20.3359 47.125H16.8203L16.8398 47.3984C16.944 48.7396 17.3086 49.944 17.9336 51.0117C18.5716 52.0794 19.4635 52.9258 20.6094 53.5508C21.7552 54.1628 23.1419 54.4688 24.7695 54.4688ZM38.5391 54H42.0547V41.168H57.5234V54H61.0391V25.8164H57.5234V38.0039H42.0547V25.8164H38.5391V54Z" fill="currentColor"/>

</svg>
